<?xml version="1.0" encoding="UTF-8"?>
<svg version="1.1" xmlns="http://www.w3.org/2000/svg" width="2000" height="1500">
<path d="M0 0 C660 0 1320 0 2000 0 C2000 495 2000 990 2000 1500 C1340 1500 680 1500 0 1500 C0 1005 0 510 0 0 Z " fill="#FFFEFE" transform="translate(0,0)"/>
<path d="M0 0 C1.05251953 0.00757324 2.10503906 0.01514648 3.18945312 0.02294922 C13.49634463 0.24180293 22.17134588 1.96978383 30.375 8.65234375 C33.3691569 11.81977362 35.23409266 15.5138791 37.0625 19.4375 C37.5575 20.4275 37.5575 20.4275 38.0625 21.4375 C39.036377 35.99775945 37.2925456 45.19018313 27.671875 56.6015625 C27.14078125 57.20742188 26.6096875 57.81328125 26.0625 58.4375 C27.45662109 58.96537109 27.45662109 58.96537109 28.87890625 59.50390625 C36.06070484 62.32636668 42.45853203 64.95684127 47.0625 71.4375 C47.49175781 72.035625 47.92101562 72.63375 48.36328125 73.25 C53.11762884 81.61503769 52.06659972 93.03905375 50.3671875 102.17578125 C48.42267493 109.12863922 45.4732083 114.75335886 41.0625 120.4375 C40.32 121.46875 39.5775 122.5 38.8125 123.5625 C27.31633964 135.5812131 11.11417233 142.06426867 -5.3046875 142.640625 C-15.72613305 142.81981314 -25.71949327 142.79089149 -34.3359375 136.09375 C-42.81332848 127.32688713 -43.35823793 117.92745874 -43.23828125 106.390625 C-43.03795596 100.18978673 -42.00618233 94.22556779 -40.9375 88.125 C-37.87637596 70.35285311 -38.57563754 52.40397137 -38.9375 34.4375 C-41.9075 34.9325 -41.9075 34.9325 -44.9375 35.4375 C-47.79022441 31.15841338 -47.54217907 27.45863252 -46.9375 22.4375 C-44.69495828 15.56216251 -39.13641178 11.17006781 -32.98046875 7.8359375 C-22.08850232 2.59022176 -12.10394984 -0.12228173 0 0 Z " fill="#FFED03" transform="translate(297.9375,682.5625)"/>
<path d="M0 0 C8.33845072 10.24438232 6.80767737 23.8767238 6.6875 36.3125 C6.68362274 37.37031677 6.67974548 38.42813354 6.67575073 39.51800537 C6.59107882 59.22329998 4.99778716 78.4290587 1.64160156 97.84570312 C0.3900529 105.67797541 -0.486498 115.14188501 3.77734375 122.171875 C7.13106155 125.77642488 11.62912256 127.16804085 16.1875 128.6875 C17.04277733 132.57512423 17.42603764 135.02489544 16.0625 138.8125 C13.37884259 142.92744136 10.92498321 146.10833893 6.1875 147.6875 C4.0658532 147.83304833 1.93893294 147.90830412 -0.1875 147.9375 C-1.30898438 147.96328125 -2.43046875 147.9890625 -3.5859375 148.015625 C-7.16130517 147.65202829 -8.9691978 146.84658509 -11.8125 144.6875 C-15.41641415 138.54749811 -15.92152844 131.65804221 -16.8125 124.6875 C-17.28558594 125.38875 -17.75867188 126.09 -18.24609375 126.8125 C-25.38210531 137.05052048 -32.78109677 144.67703226 -44.8125 148.6875 C-63.6672672 149.89183592 -63.6672672 149.89183592 -69.8125 144.6875 C-76.89359764 138.31157391 -80.60319455 131.43564828 -81.19140625 121.90625 C-81.84473109 102.95286071 -77.45740843 86.8981946 -65.1484375 72.11328125 C-57.11438986 63.77023178 -48.06017993 57.42989638 -36.26513672 57.16992188 C-35.14389404 57.17862305 -35.14389404 57.17862305 -34 57.1875 C-33.21898926 57.18814453 -32.43797852 57.18878906 -31.63330078 57.18945312 C-24.90253256 57.36185867 -19.5690811 59.13718567 -13.8125 62.6875 C-13.42293264 46.60702502 -14.19963453 32.14629462 -20.47265625 17.17578125 C-21.72559813 13.91374889 -22.57439279 11.16981796 -22.8125 7.6875 C-17.62221147 -0.333855 -9.08136129 -4.2379686 0 0 Z " fill="#FFED02" transform="translate(893.8125,676.3125)"/>
<path d="M0 0 C3.30900073 2.60634872 4.92679654 5.08648537 6.08203125 9.05859375 C6.34308608 12.35450392 6.31549027 15.62938205 6.26953125 18.93359375 C6.26888672 19.80628906 6.26824219 20.67898438 6.26757812 21.578125 C6.2342466 26.50378326 5.90901106 31.20256831 5.08203125 36.05859375 C5.50613281 35.01960937 5.93023438 33.980625 6.3671875 32.91015625 C11.63130121 20.28204476 18.3891998 5.66734372 31.6484375 -0.27734375 C37.75089004 -1.94253947 44.65155827 -2.22915303 50.62109375 0.01171875 C55.66641608 2.99734021 59.13099252 6.60591491 61.26953125 12.12109375 C62.57396025 17.3157225 62.74965115 22.73176534 63.08203125 28.05859375 C63.48292969 27.30835938 63.88382813 26.558125 64.296875 25.78515625 C70.49098993 14.63294025 78.43324266 3.27485661 91.08203125 -0.94140625 C107.60002891 -2.13665875 107.60002891 -2.13665875 114.08203125 3.05859375 C119.60665732 8.58321982 122.20662724 13.78822504 122.51953125 21.49609375 C122.41312473 26.51597776 121.41802698 31.05906734 120.08203125 35.87109375 C117.7216481 44.41387297 115.93176348 53.92353504 119.4609375 62.3515625 C122.25825206 67.02274078 126.43844974 69.4051186 131.08203125 72.05859375 C130.6151359 78.82857625 129.33004554 83.20427816 124.01953125 87.87109375 C119.624928 90.56456026 115.08195577 90.6750228 110.08203125 90.05859375 C103.7803313 86.84829378 99.88526924 82.09960076 97.66918945 75.44238281 C95.36619903 66.09252895 98.038235 56.74212361 100.3046875 47.6640625 C103.08151634 36.34090425 103.08151634 36.34090425 100.64453125 25.37109375 C96.14152777 23.06467733 91.75757237 23.22433831 86.96484375 24.71875 C77.16721501 29.12196447 70.80924945 38.01226092 66.79296875 47.73974609 C64.96382706 53.70581334 65.19245223 60.02734371 65.21484375 66.2109375 C65.18541976 73.66844754 63.32822198 79.92520714 59.08203125 86.05859375 C54.85297636 89.89424818 51.62315462 90.48935581 46.1328125 90.39453125 C44.08203125 90.05859375 44.08203125 90.05859375 41.08203125 88.05859375 C41.49129994 81.69338853 42.07115263 75.58601778 43.58056641 69.38574219 C45.42487684 60.82684878 45.29400959 51.95780565 45.33203125 43.24609375 C45.35265625 42.04533203 45.37328125 40.84457031 45.39453125 39.60742188 C45.3996875 38.45048828 45.40484375 37.29355469 45.41015625 36.1015625 C45.41950195 35.0602417 45.42884766 34.0189209 45.43847656 32.94604492 C45.02747433 29.6166453 44.05630568 27.74693548 42.08203125 25.05859375 C39.21594996 23.62555311 37.26902342 23.7521522 34.08203125 24.05859375 C20.10984174 31.19332882 13.8467217 48.6765291 9.02734375 62.671875 C8.06999685 66.10170872 7.52885679 69.40367195 7.08203125 72.93359375 C6.33339607 78.5655281 5.10346977 82.90949051 1.08203125 87.05859375 C-4.02248591 90.14056637 -8.12475428 90.54136162 -13.91796875 90.05859375 C-14.90796875 89.39859375 -15.89796875 88.73859375 -16.91796875 88.05859375 C-16.29128117 81.791718 -15.03216392 75.76105251 -13.63671875 69.62109375 C-12.08650775 61.93743923 -11.70890888 54.50315844 -11.66796875 46.68359375 C-11.63703125 45.21792969 -11.63703125 45.21792969 -11.60546875 43.72265625 C-11.5660342 36.30896011 -11.88464483 28.17174199 -17.29296875 22.62109375 C-18.15921875 22.10546875 -19.02546875 21.58984375 -19.91796875 21.05859375 C-20.82546875 20.50171875 -21.73296875 19.94484375 -22.66796875 19.37109375 C-23.41046875 18.93796875 -24.15296875 18.50484375 -24.91796875 18.05859375 C-25.91796875 17.05859375 -25.91796875 17.05859375 -26.29296875 14.43359375 C-25.78869397 9.89512074 -23.9929771 7.35782145 -20.91796875 4.05859375 C-15.00871578 -0.43243851 -7.22882802 -3.54816202 0 0 Z " fill="#FFED03" transform="translate(1307.91796875,734.94140625)"/>
<path d="M0 0 C8.04651175 6.61492377 12.75254695 14.97594657 13.93115234 25.40625 C15.17056534 41.84843475 11.4128668 56.76589978 0.69140625 69.6484375 C-7.13552921 78.04739498 -17.15242464 84.06243832 -28.8359375 84.55078125 C-30.45306526 84.56521989 -32.07032068 84.56895838 -33.6875 84.5625 C-34.48671875 84.57861328 -35.2859375 84.59472656 -36.109375 84.61132812 C-45.52075188 84.61894251 -53.50122218 81.85307282 -60.3125 75.25 C-65.95187517 68.2079376 -67.72020172 60.56931096 -67.75 51.6875 C-67.75314209 50.90826172 -67.75628418 50.12902344 -67.75952148 49.32617188 C-67.58838012 40.89810468 -65.07130849 33.76761698 -61.3125 26.25 C-64.2825 26.745 -64.2825 26.745 -67.3125 27.25 C-70.10674197 22.40815562 -70.25813136 17.69683661 -69.3125 12.25 C-64.69343293 3.16951319 -53.53173739 -1.79501616 -44.4375 -5.1875 C-29.77803573 -9.27727808 -12.73576026 -8.68023884 0 0 Z " fill="#FFED03" transform="translate(724.3125,740.75)"/>
<path d="M0 0 C5.02835004 3.74116651 8.24660302 7.91468108 10 14 C11.19147836 22.81693987 8.71652667 29.96401752 3.8125 37.25 C-4.49255014 45.37049347 -14.54401382 50.48119454 -26.25976562 50.546875 C-27.18466797 50.53140625 -28.10957031 50.5159375 -29.0625 50.5 C-30.4556543 50.52320313 -30.4556543 50.52320313 -31.87695312 50.546875 C-38.4085646 50.5102063 -43.26434345 49.10427274 -49 46 C-48.56501381 51.32858082 -47.5231906 55.79619303 -44 60 C-36.1644249 66.12944181 -28.79279295 66.88483104 -19 66 C-12.8036361 64.36437711 -7.16307626 62.13077556 -2.125 58.125 C1 56 1 56 4.875 56.125 C8 57 8 57 9 58 C8.86729799 64.5023984 6.39101843 68.31254151 2 73 C-8.2382542 82.59077568 -19.42580172 87.16346355 -33.25 87.25 C-34.05824219 87.270625 -34.86648438 87.29125 -35.69921875 87.3125 C-45.42946105 87.37477355 -52.75367252 84.43751189 -60 78 C-66.66937208 71.33062792 -69.21690205 61.27608197 -69.25 52.125 C-69.20940501 35.45634454 -64.10162976 21.43942372 -52.4609375 9.22265625 C-38.64831089 -3.25255731 -17.17104101 -9.74650074 0 0 Z " fill="#FFED03" transform="translate(993,738)"/>
<path d="M0 0 C4.58143307 4.98567716 7.41486572 9.87572133 7.6875 16.75 C7.24464185 25.09437979 4.15773563 32.30217046 -1.5390625 38.421875 C-10.03142001 45.2952881 -19.73322102 48.4999933 -30.5 48.5625 C-31.36496094 48.583125 -32.22992187 48.60375 -33.12109375 48.625 C-39.95315631 48.66597189 -45.75195835 47.37402082 -51.875 44.3125 C-50.98411412 51.79594138 -48.43806536 56.21784175 -42.7890625 61.015625 C-36.3576789 65.37321552 -29.36876455 65.0719508 -21.875 64.3125 C-15.68969596 62.66942253 -10.03405653 60.41183067 -4.9375 56.5 C-1.52356209 54.06147292 0.02487117 53.64503717 4.125 54.3125 C6.125 56.3125 6.125 56.3125 6.6875 58.875 C5.35971057 66.98926873 -1.93559854 72.74053033 -8.18359375 77.51953125 C-17.20092996 83.5267262 -25.49103438 85.49593371 -36.125 85.5625 C-36.93324219 85.583125 -37.74148438 85.60375 -38.57421875 85.625 C-48.03091077 85.68552283 -56.04182961 82.97304293 -62.875 76.3125 C-70.74468528 66.41868281 -72.64611784 56.77890509 -71.875 44.3125 C-69.95630182 28.94665443 -64.19029588 15.27735358 -52.234375 5.0546875 C-36.56537116 -6.8064858 -17.49887435 -10.27107842 0 0 Z " fill="#FFED03" transform="translate(1741.875,739.6875)"/>
<path d="M0 0 C6.50145601 3.89308743 12.01219085 8.65182547 13.95703125 16.171875 C14.84688054 24.02576223 13.82333729 30.28966302 9.10546875 36.6796875 C2.56570987 44.42109819 -5.95948639 51.42989294 -16.43676758 52.39160156 C-19.24600509 52.51304349 -22.04369172 52.54309319 -24.85546875 52.546875 C-25.80228516 52.57136719 -26.74910156 52.59585938 -27.72460938 52.62109375 C-34.36293597 52.64850597 -39.2204717 51.35696946 -45.04296875 48.171875 C-44.60798256 53.50045582 -43.56615935 57.96806803 -40.04296875 62.171875 C-32.44698039 68.11389815 -25.53376405 68.91318024 -16.04296875 68.171875 C-8.65793225 66.59771984 -3.13665298 63.70347629 2.91015625 59.30078125 C5.25073218 58.00989109 6.40418227 57.91503405 9.01953125 58.296875 C9.98890625 58.585625 10.95828125 58.874375 11.95703125 59.171875 C13.07009245 63.0675892 13.26248581 64.61753154 11.26953125 68.234375 C10.12484375 69.6884375 10.12484375 69.6884375 8.95703125 71.171875 C8.37179687 71.96335937 7.7865625 72.75484375 7.18359375 73.5703125 C-0.34336349 82.36496781 -11.73088152 88.32513202 -23.22314453 89.37011719 C-34.60439265 90.04452609 -44.81822729 89.59177574 -54.04296875 82.171875 C-61.43431155 75.47752286 -64.78184033 67.75328026 -65.38671875 57.8203125 C-65.94254604 41.0047554 -61.81395916 26.73153515 -50.66796875 13.734375 C-46.52161088 9.41321283 -42.29790934 6.03743322 -37.04296875 3.171875 C-36.18445312 2.68589844 -35.3259375 2.19992187 -34.44140625 1.69921875 C-24.57726604 -3.17850348 -10.39243048 -4.34555279 0 0 Z " fill="#FFED03" transform="translate(1571.04296875,735.828125)"/>
<path d="M0 0 C3.54304461 2.12244128 4.73816902 5.36716952 5.99291992 9.19384766 C6.54029767 12.87877207 6.56234095 16.47393408 6.49291992 20.19384766 C6.48518555 21.20406982 6.47745117 22.21429199 6.46948242 23.25512695 C6.29585443 30.84954277 4.99947273 37.53177036 2.89526367 44.79541016 C1.35011821 50.61478917 0.84345784 55.74499366 3.43041992 61.25634766 C5.286191 63.83785443 5.286191 63.83785443 8.21557617 64.43212891 C16.057139 64.63706659 20.99506203 63.62619323 26.98120117 58.48681641 C33.52106431 51.84536316 37.24488143 43.60273106 40.99291992 35.19384766 C41.36674805 34.37916016 41.74057617 33.56447266 42.12573242 32.72509766 C44.0285871 27.92177518 44.17987239 23.24705553 44.36791992 18.13134766 C44.67070599 10.20310953 46.36122344 5.61191494 52.11791992 0.19384766 C56.62255525 -1.37298202 61.27351328 -1.39132837 65.99291992 -0.80615234 C67.99291992 1.19384766 67.99291992 1.19384766 68.11010742 2.97900391 C67.50189426 8.69816962 66.34848171 14.17726868 64.99291992 19.75634766 C62.90343518 28.38227553 62.90343518 28.38227553 61.99291992 37.19384766 C61.94627197 38.1705542 61.94627197 38.1705542 61.89868164 39.16699219 C61.00187711 52.36246027 61.00187711 52.36246027 65.99291992 64.19384766 C69.29586536 66.88835578 72.93350885 67.96658385 76.99291992 69.19384766 C77.4951295 75.47146741 77.19361226 79.15301685 72.99291992 84.19384766 C70.31624661 87.29878869 68.20606874 88.08046926 64.06713867 88.46728516 C53.78988775 88.77548415 53.78988775 88.77548415 50.36791992 86.19384766 C45.38454209 79.8990546 44.52679115 73.4608153 44.30541992 65.69384766 C44.27125977 64.87142578 44.23709961 64.04900391 44.2019043 63.20166016 C44.12042112 61.19950216 44.05497417 59.19670198 43.99291992 57.19384766 C43.59202148 58.08845703 43.19112305 58.98306641 42.77807617 59.90478516 C36.86206006 72.66440339 29.05880714 82.85170023 15.80541992 88.56884766 C7.35597366 89.95400278 -1.4569502 90.69179737 -9.00708008 86.19384766 C-9.89395508 85.67822266 -10.78083008 85.16259766 -11.69458008 84.63134766 C-18.13659432 77.84111643 -18.50505809 69.77601022 -18.42236328 60.86132812 C-18.25437204 55.62587305 -17.3097675 51.17137325 -15.69458008 46.18603516 C-14.74577875 42.056593 -14.58466008 38.04527139 -14.50708008 33.81884766 C-14.46164062 32.65772461 -14.46164062 32.65772461 -14.4152832 31.47314453 C-14.41160639 27.25584238 -14.62245355 25.6717557 -17.35864258 22.27197266 C-19.98717552 20.14720259 -19.98717552 20.14720259 -22.88208008 18.31884766 C-25.00708008 16.19384766 -25.00708008 16.19384766 -25.13208008 12.81884766 C-23.34770472 7.06919373 -20.49930778 4.30570359 -15.81958008 0.81884766 C-11.05455348 -1.68906108 -5.00932051 -2.01201512 0 0 Z " fill="#FFED03" transform="translate(1196.007080078125,735.80615234375)"/>
<path d="M0 0 C3.25642362 2.65338221 4.50227525 5.86254214 5.0090332 10.00048828 C5.1724137 13.38135365 5.20362067 16.74010622 5.1875 20.125 C5.18685547 21.41905762 5.18621094 22.71311523 5.18554688 24.04638672 C5.06797223 35.63831855 3.6825971 47.01752509 2.1875 58.5 C0.5792592 70.87597755 -0.82118033 83.06792808 -0.875 95.5625 C-0.89626953 97.2343335 -0.89626953 97.2343335 -0.91796875 98.93994141 C-0.83886384 105.2238376 -0.34045466 109.43011257 3.6875 114.375 C9.08377935 117.64749614 14.0610402 117.85091751 20.1875 117.75 C21.5010144 117.73803589 21.5010144 117.73803589 22.84106445 117.72583008 C33.27777579 117.500372 42.99047472 115.44936493 52.82421875 111.94921875 C55.56604015 111.10425492 57.85653263 110.97057609 60.6875 111.375 C62.86219368 113.00472271 63.59880745 113.9179537 64.12109375 116.609375 C64.12989746 122.27896145 63.75147446 127.07879843 59.6875 131.375 C47.82767817 140.82188303 32.85269987 142.58952948 18.24267578 142.67016602 C16.7998673 142.68163739 15.35709962 142.7020121 13.91455078 142.73168945 C3.63486742 142.9426575 -6.07432585 142.40940765 -14.75 136.1875 C-21.11504629 129.20147358 -22.04313333 122.21844667 -21.71484375 112.92578125 C-21.15361672 103.52478017 -19.80761558 94.16880615 -18.55250549 84.83946228 C-15.5950815 62.84926534 -12.15845777 37.08189013 -23.08203125 16.9609375 C-24.3125 14.375 -24.3125 14.375 -24.6875 10.5 C-22.32267837 5.12540538 -17.81154534 2.74947494 -12.8125 0 C-8.50411355 -1.07709661 -4.32994146 -1.17025445 0 0 Z " fill="#FFED02" transform="translate(1105.3125,682.625)"/>
<path d="M0 0 C2.07702741 1.55663928 3.38342038 2.93746738 5 5 C5.495 5.495 5.495 5.495 6 6 C6.44341984 9.81341061 6.15445955 11.71396381 4.3125 15.125 C1.23846166 18.9467774 -2.28266211 22.3784151 -7 24 C-10.39123561 23.82151392 -12.03500238 22.97641144 -14.875 21.0625 C-21.71570122 16.54763719 -29.02260265 16.29286228 -37 17 C-40.64544584 17.93930753 -40.64544584 17.93930753 -43 20 C-43.96906827 22.58414426 -43.96906827 22.58414426 -44 25 C-40.53247477 28.18373799 -36.94142412 28.83853238 -32.4375 29.5625 C-31.72440674 29.68834473 -31.01131348 29.81418945 -30.27661133 29.94384766 C-27.15319831 30.49203708 -24.02816487 30.99586019 -20.890625 31.45703125 C-12.94212402 32.68606247 -4.33918465 34.81292463 1.125 41.125 C4.50291948 46.30447654 4.59141334 50.9859094 4 57 C1.49020782 67.35468546 -4.16171971 75.97064685 -13 82 C-24.28803101 87.98839611 -37.28437672 88.94894815 -49.73828125 86.1640625 C-56.38403494 83.64762718 -61.12595775 79.992855 -65 74 C-66.20190901 70.39427296 -66.32670315 67.7897565 -66 64 C-64.375 61.0625 -64.375 61.0625 -62 59 C-57.37794659 58.53006978 -54.6041245 59.47048788 -50.5 61.5 C-44.13692577 64.08936662 -38.40562928 64.49548606 -31.5625 64.5 C-30.61503906 64.50580078 -29.66757812 64.51160156 -28.69140625 64.51757812 C-23.23088207 64.4206228 -18.11350715 64.11350715 -14 60 C-13.95936168 58.33382885 -13.957279 56.66611905 -14 55 C-20.05170088 52.90346481 -26.0711304 51.58618737 -32.375 50.5625 C-52.30479078 47.2463585 -52.30479078 47.2463585 -58 41 C-61.84998046 34.40003349 -61.96098511 28.4734462 -61 21 C-57.62010809 10.43938536 -51.40460566 4.13687618 -41.75 -0.875 C-29.84167582 -6.6016145 -11.59152795 -6.24621195 0 0 Z " fill="#FFED03" transform="translate(485,738)"/>
<path d="M0 0 C1.23004981 2.46009963 1.13314027 4.13172806 1.125 6.875 C1.12886719 8.17050781 1.12886719 8.17050781 1.1328125 9.4921875 C1.01023921 11.80665971 0.64966445 13.78289116 0 16 C1.051875 15.67 2.10375 15.34 3.1875 15 C9.69166763 13.38557268 17.74539108 12.32555983 23.83203125 15.45703125 C26 17 26 17 27 18 C27.81868211 24.88498231 26.87629297 30.22800171 23 36 C21 38 21 38 18.9765625 38.23046875 C18.20054687 38.21628906 17.42453125 38.20210937 16.625 38.1875 C15.85414063 38.18105469 15.08328125 38.17460938 14.2890625 38.16796875 C12 38 12 38 10.1328125 37.5234375 C7.18688524 36.80044436 4.27338858 36.6491372 1.25 36.4375 C0.07953125 36.35371094 -1.0909375 36.26992188 -2.296875 36.18359375 C-3.63492188 36.09271484 -3.63492188 36.09271484 -5 36 C-8.75154228 56.32660537 -8.75154228 56.32660537 -5.125 75.875 C-1.01471355 80.92938586 4.9480038 82.63242382 11.2109375 83.38671875 C13.28260576 83.5397112 15.35747642 83.65618564 17.43359375 83.7265625 C20 84 20 84 23 86 C22.88277302 90.79564903 22.51355871 94.17519359 19.9375 98.3125 C13.38052511 104.31143448 6.51396675 106.20014145 -2.25 106.3125 C-3.35794922 106.35600586 -3.35794922 106.35600586 -4.48828125 106.40039062 C-10.1528089 106.46532789 -13.33348246 105.22573025 -18 102 C-27.85463025 91.69743201 -27.33864538 81.09004621 -27.234375 67.6953125 C-27.00592082 57.70483551 -25.56856182 47.85635302 -24 38 C-24.87785156 38.24169922 -24.87785156 38.24169922 -25.7734375 38.48828125 C-28.90820072 39.20872683 -31.79778138 39.17790103 -35 39 C-37 37 -37 37 -37.5625 34.0625 C-37.24634287 24.53826657 -27.3831834 15.26919798 -21 9 C-8.54503656 -1.93472526 -8.54503656 -1.93472526 0 0 Z " fill="#FFED04" transform="translate(542,719)"/>
<path d="M0 0 C3.22850666 2.5147494 5.17527056 4.28524193 5.9296875 8.4453125 C6.32097722 14.99690698 4.70159689 19.20391765 0.51953125 24.18359375 C0.08125 24.71726562 -0.35703125 25.2509375 -0.80859375 25.80078125 C-5.7901815 30.86102565 -12.57284956 32.71684343 -19.12890625 34.984375 C-22.28288401 35.84349148 -22.28288401 35.84349148 -23.48046875 37.18359375 C-23.8606758 42.79164771 -23.60953645 46.31615511 -20.48046875 51.18359375 C-17.10632928 53.43302007 -16.16996677 53.38918526 -12.25390625 53.23828125 C-11.22136719 53.21378906 -10.18882812 53.18929687 -9.125 53.1640625 C-6.9684569 53.09449659 -4.81216546 53.01655589 -2.65625 52.9296875 C5.47438122 52.75841026 11.71566489 53.95030735 18.01953125 59.30859375 C21.58460481 63.76493571 20.92427449 68.70399289 20.51953125 74.18359375 C18.7149019 80.04863915 14.45957541 83.76292452 9.51953125 87.18359375 C1.92912028 90.96172935 -4.84581455 92.37879209 -13.23046875 92.43359375 C-14.00390625 92.45421875 -14.77734375 92.47484375 -15.57421875 92.49609375 C-21.43503551 92.53542809 -27.45601871 91.91505924 -32.01025391 87.80200195 C-38.76685239 79.98715583 -38.1784472 71.99691462 -37.48046875 62.18359375 C-36.52393616 53.01049681 -35.22493283 43.87823791 -33.96337891 34.74316406 C-32.36012878 22.92547606 -31.20771426 11.08745444 -30.48046875 -0.81640625 C-20.9948355 -3.47904014 -8.7747417 -5.52483736 0 0 Z " fill="#FFFEFC" transform="translate(311.48046875,708.81640625)"/>
<path d="M0 0 C3.91217751 3.79711346 5.42946667 8.9759 7.125 14.0625 C7.65287109 13.30066406 7.65287109 13.30066406 8.19140625 12.5234375 C16.99348635 0.25108561 16.99348635 0.25108561 24.125 -0.9375 C35.48953812 -1.9030109 35.48953812 -1.9030109 39.8125 1 C43.11460156 3.94511761 43.11460156 3.94511761 43.328125 6.35546875 C43.43315252 12.84091841 43.31207501 17.53656931 38.765625 22.56640625 C36.38425591 24.81888681 34.83231946 26.0625 31.5 26.0625 C29.125 25.0625 29.125 25.0625 27.1875 23.5 C24.34692333 21.52020414 22.52719613 21.71533713 19.125 22.0625 C15.4362105 23.05497515 15.4362105 23.05497515 13 25.8125 C12.566875 26.92625 12.566875 26.92625 12.125 28.0625 C11.63 28.908125 11.135 29.75375 10.625 30.625 C7.49223601 37.80425081 6.97991432 45.30658792 6.88671875 53.07421875 C6.87782623 53.77817276 6.86893372 54.48212677 6.85977173 55.20741272 C6.83022492 58.12646803 6.8102453 61.04490045 6.81958008 63.96411133 C6.83907954 79.95189764 6.83907954 79.95189764 1.125 86.0625 C-2.45180594 89.32370542 -5.65430567 90.21059972 -10.4375 90.25 C-11.22253906 90.26417969 -12.00757813 90.27835938 -12.81640625 90.29296875 C-14.875 90.0625 -14.875 90.0625 -16.875 88.0625 C-16.9936051 81.72701068 -15.86914097 75.46218642 -14.37695312 69.32739258 C-12.60115462 61.31470644 -12.66215431 53.10215962 -12.625 44.9375 C-12.604375 43.79667969 -12.58375 42.65585937 -12.5625 41.48046875 C-12.52964034 34.40742685 -12.71666977 28.98229067 -17.30078125 23.29296875 C-19.1521615 21.84586012 -21.05320899 20.59375028 -23.0625 19.375 C-23.77792969 18.93800781 -24.49335937 18.50101563 -25.23046875 18.05078125 C-25.77316406 17.72464844 -26.31585937 17.39851562 -26.875 17.0625 C-26.75019784 11.07199637 -24.88116625 8.10385989 -20.7578125 3.796875 C-14.79681351 -1.69416972 -7.58577154 -2.47362115 0 0 Z " fill="#FFED03" transform="translate(603.875,734.9375)"/>
<path d="M0 0 C4.51669296 3.58678559 5.99259008 6.75649177 6.71875 12.265625 C6.8425 13.503125 6.96625 14.740625 7.09375 16.015625 C7.4340625 15.36335937 7.774375 14.71109375 8.125 14.0390625 C11.93712259 7.16507549 16.01595789 2.55452105 23.09375 -0.984375 C36.50275619 -2.03302805 36.50275619 -2.03302805 40.90625 0.953125 C44.08705296 3.95216779 44.08705296 3.95216779 44.33203125 6.2734375 C44.50224003 12.84887132 44.09013494 16.72311521 40.09375 22.015625 C37.65625 24.515625 37.65625 24.515625 35.09375 26.015625 C31.92729095 25.93646352 30.31922294 25.16015894 27.65625 23.453125 C24.4436248 21.65092062 22.72583141 21.4102781 19.09375 22.015625 C13.29365617 26.2595961 9.44734616 33.98677197 8.09375 41.015625 C7.97811745 43.61109241 7.90914584 46.18503741 7.8828125 48.78125 C7.85473318 50.32683331 7.82606865 51.87240608 7.796875 53.41796875 C7.75574881 55.83804911 7.71883404 58.25793496 7.69238281 60.67822266 C7.66454792 63.02547156 7.6186736 65.37184562 7.5703125 67.71875 C7.56705963 68.43049377 7.56380676 69.14223755 7.56045532 69.87554932 C7.42607967 75.44972901 6.53504182 81.31091168 2.67764282 85.58453369 C-1.23589223 88.96609461 -4.38643258 90.16126077 -9.46875 90.203125 C-10.25378906 90.21730469 -11.03882813 90.23148438 -11.84765625 90.24609375 C-13.90625 90.015625 -13.90625 90.015625 -15.90625 88.015625 C-16.30101206 83.1982942 -15.55969696 79.00287669 -14.48242188 74.35449219 C-12.2700738 64.65390833 -11.46901007 55.20982676 -11.40625 45.265625 C-11.38820313 44.08846924 -11.37015625 42.91131348 -11.3515625 41.69848633 C-11.39894815 34.7895595 -11.96035049 28.86103531 -15.90625 23.015625 C-18.10222048 21.00839604 -18.10222048 21.00839604 -20.59375 20.015625 C-21.38136719 19.644375 -22.16898438 19.273125 -22.98046875 18.890625 C-23.93373047 18.4575 -23.93373047 18.4575 -24.90625 18.015625 C-25.23625 17.685625 -25.56625 17.355625 -25.90625 17.015625 C-25.90625 11.03500416 -23.88417715 8.02748818 -19.7890625 3.75 C-14.54368761 -1.08183911 -6.7088498 -3.46440604 0 0 Z " fill="#FFED03" transform="translate(1623.90625,734.984375)"/>
<path d="M0 0 C3.73888248 1.90921659 4.80226779 3.63862734 6.8125 7.3125 C10.17407587 17.70457169 7.88732648 29.00919764 5.734375 39.4140625 C4.87360583 43.61718004 4.25618853 47.72014455 4 52 C3.93554688 53.0003125 3.87109375 54.000625 3.8046875 55.03125 C3.52796627 61.22274323 3.52796627 61.22274323 5.5625 66.9375 C8.5966976 69.50489797 11.70129474 71.77971761 15 74 C14.45005195 78.53707137 12.84121907 82.42939335 10 86 C4.1964809 90.40221381 -1.85889805 91.89111187 -9 91 C-12.9427045 88.9556347 -15.81103092 86.86989663 -18 83 C-18.47709495 80.05791448 -18.47315276 77.16288511 -18.4375 74.1875 C-18.43355225 73.34815918 -18.42960449 72.50881836 -18.42553711 71.64404297 C-18.24356788 63.6054192 -16.39521422 56.63775137 -14 49 C-12.91259198 44.69219132 -12.74871266 40.42363499 -12.6875 36 C-12.65849609 35.30132813 -12.62949219 34.60265625 -12.59960938 33.8828125 C-12.55523624 30.2646953 -12.86140186 28.2177121 -14.8203125 25.140625 C-17.33515279 22.67085353 -20.01229933 20.85901375 -23 19 C-24 18 -24 18 -24.375 14.8125 C-23.91890515 10.17553574 -22.4458501 7.93058279 -19 5 C-13.04671383 0.54675444 -7.42579983 -1.36551486 0 0 Z " fill="#FFED04" transform="translate(390,734)"/>
<path d="M0 0 C3.17324523 2.79992227 4.85252501 5.80715076 5.41259766 10.05761719 C5.53042331 12.60825704 5.5390314 15.13442852 5.5 17.6875 C5.49419922 18.61602783 5.48839844 19.54455566 5.48242188 20.5012207 C5.36124617 27.05087956 4.53160531 33.20044226 3.20166016 39.59936523 C1.54225278 47.98347598 0.39535688 58.68607064 3.125 66.875 C4.92432579 67.94216704 4.92432579 67.94216704 7.125 68.875 C9.875 70.125 9.875 70.125 12.125 71.875 C12.89995151 75.74975756 12.31367588 77.52560022 10.4375 81 C6.6163897 85.75056956 3.10642435 88.46760604 -2.875 89.875 C-9.31127758 90.48797882 -12.61282847 89.6637635 -17.875 85.875 C-20.55773657 81.5948918 -20.25777152 77.40885857 -20.25 72.5 C-20.25056396 71.61038574 -20.25112793 70.72077148 -20.25170898 69.80419922 C-20.13955214 63.0000172 -19.0601998 57.27554708 -16.84765625 50.8203125 C-15.0927975 45.50640286 -14.69780259 40.3879647 -14.625 34.8125 C-14.59921875 33.62527344 -14.5734375 32.43804688 -14.546875 31.21484375 C-14.90875946 27.53137691 -15.62672776 25.7836392 -17.875 22.875 C-19.84882557 21.21977911 -19.84882557 21.21977911 -22 19.875 C-24.51409678 18.05668647 -25.72114073 17.18271855 -27.125 14.375 C-26.6732546 9.85754601 -24.30160265 7.1068055 -20.9296875 4.1953125 C-14.44488346 -0.80588324 -7.99568154 -3.12874495 0 0 Z " fill="#FFED03" transform="translate(1477.875,735.125)"/>
<path d="M0 0 C3.93623766 2.66798034 6.86673558 6.10456491 8.98828125 10.34765625 C9.62321525 18.76833836 10.09050273 27.18953964 4.98828125 34.34765625 C0.3260067 39.57540469 -5.03905715 42.98141856 -12.0625 43.62890625 C-20.13388609 43.85233562 -26.27636146 43.31896318 -32.76171875 38.16015625 C-37.80441189 31.85678983 -39.75523731 26.69850055 -39.46484375 18.515625 C-38.35681257 10.76895872 -35.33793653 3.17555929 -29.01171875 -1.65234375 C-20.5210131 -4.48257897 -8.06638576 -3.88691127 0 0 Z " fill="#FFFEFC" transform="translate(713.01171875,759.65234375)"/>
<path d="M0 0 C1.90245028 1.41095609 3.73945954 2.85485867 5.53515625 4.3984375 C1.66674637 17.82409531 -4.93805902 30.65681888 -17.33984375 37.9609375 C-22.22007421 40.07895752 -27.25424875 40.1884052 -32.46484375 39.3984375 C-37.60334071 36.87590263 -41.05786786 33.32453953 -43.54296875 28.15625 C-45.63830759 21.88799059 -45.66588423 14.63825488 -43.3671875 8.4375 C-39.70995191 1.94224959 -35.3721361 -1.69334996 -28.77734375 -4.9140625 C-18.49953576 -7.04719246 -8.86885941 -5.76265033 0 0 Z " fill="#FFFEFB" transform="translate(874.46484375,762.6015625)"/>
<path d="M0 0 C9.11549395 4.75590989 14.77770778 13.8511868 20.4375 22.125 C20.97004395 22.88893066 21.50258789 23.65286133 22.05126953 24.43994141 C25.09726959 28.99759423 26.95060628 32.45379041 27 38 C25 40 25 40 21.92578125 40.4375 C16.74203647 39.85980904 13.50433964 37.80132418 9.1875 35 C8.00099854 34.25049072 8.00099854 34.25049072 6.79052734 33.48583984 C-10.9345628 22.13087441 -10.9345628 22.13087441 -15 14 C-15.67924528 8.90566038 -15.67924528 8.90566038 -15 6 C-10.68549318 0.72545894 -6.69894177 -1.67473544 0 0 Z " fill="#FFED05" transform="translate(1536,683)"/>
<path d="M0 0 C3.33502442 2.32676122 4.89246744 4.21589516 6.6875 7.875 C7.55269295 13.83521813 6.56700699 17.27307741 3.08984375 22.17578125 C0.38982874 25.44738718 -1.61649632 26.66981732 -5.86328125 27.18359375 C-10.51390011 27.39126685 -13.62357007 27.20133523 -17.875 25.1875 C-21.7067381 21.55226129 -22.41139871 18.57988653 -22.6875 13.4375 C-22.566382 8.88043517 -21.37911546 6.34511749 -18.3125 2.875 C-12.58553554 -2.18603836 -7.00797184 -2.38006591 0 0 Z " fill="#FFED04" transform="translate(394.3125,687.125)"/>
<path d="M0 0 C3.91075925 1.98968453 5.57689098 3.36533646 8 7 C8.7020206 12.12638296 8.77517074 17.31966705 6.375 22 C3.28420955 25.90415636 0.82135252 27.6403662 -4.17578125 28.27734375 C-9.15791344 28.48667704 -12.79715664 27.90196327 -17 25 C-20.56329871 21.19914804 -20.67081921 16.80377491 -20.5625 11.80078125 C-19.60357494 7.02613357 -16.63635705 4.0769175 -13 1 C-9.05570181 -0.9721491 -4.29883571 -0.44867961 0 0 Z " fill="#FFED03" transform="translate(1478,686)"/>
<path d="M0 0 C2.4375 1.6875 2.4375 1.6875 4.4375 4.6875 C4.35780709 8.99091703 3.89731138 11.11273578 1.1875 14.5 C-3.94421364 18.58204494 -8.51454099 19.02807237 -14.9375 19 C-16.03191406 19.02416992 -16.03191406 19.02416992 -17.1484375 19.04882812 C-22.34028355 19.0534637 -25.91888524 18.00930738 -30.5625 15.6875 C-30.31826026 10.68058523 -28.74438443 7.86423367 -25.41796875 4.30078125 C-18.23679309 -1.94306201 -8.84984779 -3.26047024 0 0 Z " fill="#FFFEF8" transform="translate(1722.5625,755.3125)"/>
<path d="M0 0 C1.82428177 1.20006969 3.38971245 2.58502495 4.93359375 4.12890625 C5.28391449 7.13165547 5.51988237 9.2248598 4.93359375 12.12890625 C2.18359375 15.00390625 2.18359375 15.00390625 -1.06640625 17.12890625 C-1.62328125 17.49628906 -2.18015625 17.86367188 -2.75390625 18.2421875 C-6.21717708 19.57016466 -9.65874695 19.46672151 -13.31640625 19.44140625 C-14.07622803 19.44011719 -14.8360498 19.43882812 -15.61889648 19.4375 C-21.01759639 19.34466905 -25.20598228 18.61082487 -30.06640625 16.12890625 C-29.17412061 9.63442219 -25.33381887 5.64607606 -20.24609375 1.7265625 C-14.37227893 -1.72645416 -6.36156287 -2.68171743 0 0 Z " fill="#FFFEF9" transform="translate(1557.06640625,754.87109375)"/>
<path d="M0 0 C1.61918229 3.23836457 1.71638416 6.51181173 1 10 C-1.75 12.875 -1.75 12.875 -5 15 C-5.55558594 15.36738281 -6.11117187 15.73476563 -6.68359375 16.11328125 C-10.16935753 17.44762927 -13.63301123 17.32840099 -17.3125 17.3125 C-18.04662109 17.32861328 -18.78074219 17.34472656 -19.53710938 17.36132812 C-24.74046159 17.36594512 -28.39095375 16.45060544 -33 14 C-33.33 13.34 -33.66 12.68 -34 12 C-30.87022101 5.21881218 -26.65689489 0.51795637 -19.6875 -2.375 C-12.55912305 -3.58319948 -6.26455798 -4.17637199 0 0 Z " fill="#FFFEF9" transform="translate(979,757)"/>
</svg>
