<svg version="1.1" id="Layer_1" xmlns="http://www.w3.org/2000/svg" xmlns:xlink="http://www.w3.org/1999/xlink" x="0px" y="0px"
	 width="100%" viewBox="0 0 2000 1500" enable-background="new 0 0 2000 1500" xml:space="preserve">
<path fill="#FFFFFF" opacity="1.000000" stroke="none" 
	d="
M1793.000000,1501.000000 
	C1195.333496,1501.000000 598.166992,1501.000000 1.000401,1501.000000 
	C1.000267,1001.000305 1.000267,501.000641 1.000134,1.000736 
	C667.666138,1.000491 1334.332275,1.000491 2000.998779,1.000245 
	C2000.999268,500.999298 2000.999268,1000.998596 2000.999634,1500.999023 
	C1931.833374,1501.000000 1862.666626,1501.000000 1793.000000,1501.000000 
M663.081665,769.031860 
	C663.279724,769.186096 663.477844,769.340393 663.474854,770.194214 
	C659.131226,779.227478 657.212769,788.690735 657.938965,798.747253 
	C658.888123,811.891907 666.662964,821.651855 679.427185,824.994751 
	C688.164368,827.282959 696.921021,826.945374 705.528015,824.272766 
	C728.131165,817.254028 742.431519,791.919495 738.466003,766.373596 
	C736.369934,752.869934 730.140259,742.116211 716.890442,737.611511 
	C696.364136,730.632751 677.540955,735.072510 660.831116,748.655884 
	C655.941345,752.630859 654.795471,757.975830 655.991516,763.990601 
	C656.721924,767.663574 658.394104,769.849365 663.081665,769.031860 
M262.309357,816.150818 
	C266.886932,819.006287 271.195618,823.572754 276.100830,824.343689 
	C284.987671,825.740479 294.502838,826.320984 303.270020,824.667236 
	C324.658600,820.632751 341.367462,809.439819 348.289246,787.677002 
	C353.681183,770.724121 351.083618,748.108459 325.093231,743.057983 
	C324.822479,743.005310 324.592377,742.743530 324.391907,742.611450 
	C327.159302,738.908569 330.321045,735.450500 332.605927,731.486877 
	C342.405151,714.488647 338.816650,686.784485 307.539246,684.064453 
	C302.259613,683.605286 296.856537,683.622681 291.588440,684.169983 
	C280.702240,685.301025 270.485748,688.657043 261.270721,694.768677 
	C253.984985,699.600647 251.060333,706.366333 252.191605,714.927002 
	C252.645615,718.362549 254.392166,720.067200 258.063843,718.640808 
	C258.889069,718.320190 259.803162,718.228271 260.852966,717.991089 
	C260.949432,719.346741 261.016663,720.337036 261.090820,721.326721 
	C262.683594,742.593018 259.658539,763.514587 256.554108,784.452393 
	C254.941971,795.325378 254.820465,806.105042 262.309357,816.150818 
M1359.995605,825.824829 
	C1368.321777,824.101257 1371.729248,817.953674 1372.813110,810.475220 
	C1373.642456,804.752319 1373.328369,798.864136 1373.530396,793.049683 
	C1373.581787,791.570374 1373.300537,789.959717 1373.786133,788.634399 
	C1377.137207,779.486877 1381.523560,770.937866 1388.941772,764.317139 
	C1392.938843,760.749878 1397.559570,758.718384 1403.016724,758.873535 
	C1408.131348,759.018982 1411.196533,761.549011 1411.766846,766.595581 
	C1412.023804,768.868958 1411.818604,771.266357 1411.403931,773.530823 
	C1409.877441,781.869568 1407.906738,790.134949 1406.620483,798.507446 
	C1405.484009,805.904175 1406.250000,813.177368 1410.881836,819.496948 
	C1414.959106,825.059631 1422.190308,827.205383 1429.233643,825.071472 
	C1434.891235,823.357361 1439.211060,817.531189 1439.832031,811.187134 
	C1440.171265,807.721558 1438.010620,806.519287 1435.440674,805.430664 
	C1429.084473,802.738281 1425.891479,797.783997 1425.763550,791.021118 
	C1425.698120,787.562195 1426.052002,784.036194 1426.710327,780.636108 
	C1427.784180,775.089600 1429.523804,769.668152 1430.518311,764.110962 
	C1432.981567,750.345154 1425.889526,737.435974 1414.544678,735.203003 
	C1404.664062,733.258301 1395.350342,735.187439 1388.208496,742.472351 
	C1383.018799,747.765991 1378.928955,754.139587 1374.368408,760.046875 
	C1373.658691,760.966125 1373.054443,761.966858 1371.864624,763.721497 
	C1371.602539,760.631775 1371.430420,758.653625 1371.267578,756.674683 
	C1370.528564,747.696899 1367.684814,739.683777 1358.560059,736.326111 
	C1349.071899,732.834717 1339.607544,734.364502 1332.756470,741.873230 
	C1327.026245,748.153442 1322.781738,755.820007 1318.124756,763.031250 
	C1316.562744,765.450195 1315.757202,768.357788 1314.605957,771.042114 
	C1313.834473,768.573730 1314.431885,766.359497 1314.414429,764.150085 
	C1314.359619,757.215515 1314.483154,750.237549 1313.723755,743.366272 
	C1313.262451,739.191650 1310.159058,736.341614 1305.815796,735.299561 
	C1297.280640,733.252014 1286.554199,739.154236 1283.544067,747.508240 
	C1282.199829,751.239319 1282.882812,754.339233 1286.783569,755.616577 
	C1294.141968,758.026123 1296.286499,763.661743 1297.184570,770.534546 
	C1299.342773,787.050476 1296.348755,803.040222 1292.647461,818.989014 
	C1291.568848,823.636597 1292.968140,825.502014 1297.646973,825.956360 
	C1307.091187,826.873413 1314.566772,820.794739 1315.520020,810.512085 
	C1316.783447,796.881775 1322.023315,784.740051 1328.964355,773.340271 
	C1331.816528,768.656250 1335.902222,764.255432 1340.411011,761.159058 
	C1346.975586,756.650757 1352.666260,759.554443 1354.391235,767.354126 
	C1354.889893,769.609009 1355.298706,772.002930 1355.095215,774.274475 
	C1353.820557,788.506592 1352.509644,802.738953 1350.905151,816.936646 
	C1349.993042,825.007080 1350.649170,825.980408 1359.995605,825.824829 
M816.329895,774.849060 
	C815.561340,783.577576 813.673096,792.382446 814.262207,801.018372 
	C815.413757,817.898132 828.311035,827.759399 845.126465,826.227966 
	C857.036560,825.143311 865.263367,818.249268 872.372009,809.475708 
	C874.207825,807.210022 875.896362,804.824951 878.490906,801.382446 
	C878.771729,804.817444 878.807251,806.924194 879.138672,808.983276 
	C880.038940,814.576782 880.639282,820.433594 886.227600,823.696106 
	C895.959717,829.377747 908.373901,823.975281 911.261536,813.019531 
	C912.391541,808.732483 911.540771,806.054443 906.799194,804.831055 
	C900.387756,803.176758 896.481079,798.768494 895.609619,792.196228 
	C895.134766,788.614868 895.168091,784.897827 895.495972,781.289551 
	C897.437439,759.916565 900.187866,738.591553 901.300964,717.179504 
	C901.863342,706.362793 900.379639,695.235352 898.284485,684.549683 
	C896.613525,676.027222 890.062500,673.658875 882.129395,676.849548 
	C872.996948,680.522644 870.650452,685.431091 874.568970,693.728088 
	C881.608948,708.634460 881.463806,724.545227 882.045471,740.320801 
	C881.393982,740.494690 881.199890,740.616943 881.085571,740.564575 
	C880.632507,740.357239 880.197937,740.106201 879.767883,739.852112 
	C866.320251,731.907898 853.041748,732.858093 840.210999,741.092163 
	C828.029602,748.909668 820.864807,760.511841 816.329895,774.849060 
M1199.825928,798.208740 
	C1199.359009,794.970947 1198.259399,791.671631 1198.567261,788.509277 
	C1199.080200,783.241211 1200.499390,778.061890 1201.528809,772.843689 
	C1203.344116,763.643738 1204.534790,754.404907 1202.064697,745.150269 
	C1199.946045,737.212341 1194.224854,733.601807 1186.552246,736.431091 
	C1182.086060,738.078064 1177.804932,741.243164 1174.483276,744.720947 
	C1170.287354,749.114258 1171.094482,753.218201 1176.368530,756.231567 
	C1182.152466,759.536133 1183.879883,764.471558 1183.414307,770.482239 
	C1183.082153,774.770081 1182.051392,778.999329 1181.472168,783.273682 
	C1180.559937,790.006042 1179.093994,796.750732 1179.056519,803.496765 
	C1178.970947,818.899963 1188.671875,827.436707 1204.021851,826.356201 
	C1218.162231,825.360779 1227.583862,817.276855 1234.693970,805.868530 
	C1237.192139,801.860229 1239.196411,797.544250 1241.804321,792.660828 
	C1241.804321,796.964233 1241.644531,800.400208 1241.848877,803.814331 
	C1242.056519,807.284851 1242.237305,810.834656 1243.109741,814.172058 
	C1245.166992,822.041626 1250.703003,825.971924 1258.487061,825.621399 
	C1266.794800,825.247253 1272.932251,820.099792 1274.375000,812.346497 
	C1275.075684,808.580811 1274.377197,805.935181 1270.015381,804.915405 
	C1263.695312,803.437927 1259.483887,799.117249 1259.092163,792.780640 
	C1258.562988,784.221558 1258.615845,775.522339 1259.553711,767.008240 
	C1260.366699,759.628845 1262.686157,752.405212 1264.476807,745.146606 
	C1266.294312,737.778687 1264.186157,735.198486 1256.570557,735.749939 
	C1248.313843,736.347778 1242.958008,741.751892 1242.053345,750.741455 
	C1241.639038,754.858582 1242.771606,759.456787 1241.317871,763.080688 
	C1237.508057,772.577332 1233.340088,782.080994 1227.947632,790.729553 
	C1225.170044,795.184631 1219.869141,798.596985 1214.991333,801.061584 
	C1210.206665,803.479187 1204.599976,803.549561 1199.825928,798.208740 
M973.558899,734.896118 
	C971.079834,735.141663 968.553955,735.162170 966.128967,735.667297 
	C939.315186,741.251770 920.615356,770.386597 925.650085,798.630249 
	C928.328247,813.654114 937.038757,823.316711 951.207947,825.617188 
	C971.162476,828.856934 987.573181,822.227417 1000.134521,806.342468 
	C1001.245422,804.937561 1002.196533,803.246094 1002.677551,801.534729 
	C1003.910217,797.148865 1000.381592,793.767883 996.081604,795.258301 
	C994.250366,795.893127 992.648010,797.252136 991.017151,798.390198 
	C983.685547,803.506836 975.536499,806.154480 966.629639,805.900635 
	C953.538879,805.527527 944.475891,796.706116 944.329651,784.341736 
	C945.725647,785.016479 947.018005,785.664795 948.329651,786.271545 
	C965.309692,794.126404 988.138550,788.448608 998.753296,773.736084 
	C1009.640686,758.645630 1002.962036,740.239075 984.908386,735.944153 
	C981.551331,735.145630 977.987976,735.214539 973.558899,734.896118 
M1506.980835,787.594849 
	C1507.009766,790.257874 1506.907837,792.929871 1507.089233,795.582458 
	C1508.183716,811.584351 1518.173584,823.345764 1533.444580,825.705505 
	C1552.786255,828.694397 1568.857178,822.394836 1581.299072,807.236877 
	C1583.812988,804.174255 1586.974243,800.511841 1583.453857,796.640503 
	C1579.743164,792.559753 1576.256348,796.050232 1572.973999,798.271240 
	C1563.627441,804.595703 1553.497925,807.606262 1542.241089,804.964844 
	C1532.387695,802.652649 1525.310303,793.282837 1526.613892,784.484802 
	C1527.830200,785.092712 1528.999878,785.709106 1530.195557,786.270081 
	C1546.809448,794.065063 1569.336548,788.609497 1580.304443,774.141846 
	C1591.655396,759.168701 1585.064819,740.005249 1566.770386,736.081909 
	C1560.898804,734.822754 1554.400024,734.633545 1548.499390,735.691162 
	C1525.477539,739.817810 1508.400757,761.186401 1506.980835,787.594849 
M1733.750732,736.652527 
	C1725.049683,733.980957 1716.342773,734.176819 1707.704956,736.835144 
	C1682.986816,744.442200 1667.173096,772.417725 1672.006958,799.865601 
	C1674.405762,813.486633 1683.499268,823.268311 1697.151978,825.561646 
	C1717.088013,828.910461 1733.510620,822.339783 1746.192749,806.557007 
	C1746.815552,805.781921 1747.746582,804.926453 1747.787231,804.072876 
	C1747.911743,801.462646 1748.650391,797.831055 1747.289917,796.504456 
	C1745.999512,795.246094 1742.310059,796.120789 1739.777222,796.597412 
	C1738.448486,796.847351 1737.395874,798.350891 1736.119263,799.124329 
	C1726.021851,805.242432 1715.363647,808.266602 1703.780640,803.987061 
	C1695.183716,800.810791 1689.733521,792.292297 1691.255493,784.884033 
	C1692.641846,785.501648 1693.979370,786.127563 1695.339722,786.699097 
	C1712.452515,793.888611 1734.514404,788.138428 1744.891113,773.791626 
	C1754.905273,759.946350 1750.271729,743.497620 1733.750732,736.652527 
M1105.197021,684.011292 
	C1097.214355,681.490479 1090.950073,685.098816 1085.043457,689.763367 
	C1081.704468,692.400085 1081.384888,695.386230 1083.194580,699.446960 
	C1085.871582,705.454224 1089.120850,711.757812 1089.539917,718.105896 
	C1090.425049,731.515381 1090.226685,745.073486 1089.362427,758.499146 
	C1088.519043,771.597595 1085.896729,784.573181 1084.775146,797.664307 
	C1083.409302,813.603760 1090.201294,822.885254 1105.919678,824.851196 
	C1116.856201,826.218994 1128.223999,826.158936 1139.162720,824.813843 
	C1147.166992,823.829590 1155.050415,820.285950 1162.493530,816.821228 
	C1168.329346,814.104797 1170.895752,808.476013 1170.228760,801.813293 
	C1169.576050,795.292175 1166.478271,793.294678 1160.449829,795.711792 
	C1149.638916,800.046570 1138.418457,802.040100 1126.806763,802.009583 
	C1109.042236,801.962952 1103.917236,797.138489 1104.900879,779.235779 
	C1105.785889,763.130615 1108.140259,747.111572 1109.382812,731.018799 
	C1110.302612,719.104797 1110.901123,707.127319 1110.731445,695.191040 
	C1110.679688,691.546204 1107.605225,687.944336 1105.197021,684.011292 
M469.772705,758.472473 
	C477.571442,763.878540 480.793579,763.680481 487.347015,757.392151 
	C494.303589,750.716980 493.497498,742.872559 484.732819,738.956421 
	C470.278748,732.498230 455.461639,732.224548 441.604980,740.380005 
	C436.531494,743.366028 431.686218,748.080933 428.795685,753.175293 
	C421.103546,766.732239 422.060577,783.213745 443.759338,787.072571 
	C452.108704,788.557373 460.437805,790.216553 468.678925,792.200317 
	C470.389862,792.612061 472.685638,794.691406 472.866058,796.220093 
	C473.049255,797.772461 471.329437,800.286682 469.765625,801.144165 
	C467.067566,802.623596 463.903412,803.504211 460.831940,804.005310 
	C450.634491,805.669250 441.033112,803.525391 431.774261,799.115784 
	C424.925812,795.854004 420.258728,798.873047 420.066040,806.459656 
	C419.927979,811.894287 422.451538,816.033752 426.667236,819.239929 
	C433.599609,824.512268 441.653992,826.237793 450.128510,826.431641 
	C469.984131,826.885864 485.632812,814.917786 489.441315,796.453857 
	C491.728760,785.364075 487.728027,777.850830 477.204437,774.071655 
	C473.470093,772.730530 469.546753,771.848022 465.650757,771.040344 
	C459.469299,769.758911 453.133392,769.088196 447.082184,767.381531 
	C444.803833,766.739014 443.136566,763.929993 441.190674,762.108582 
	C443.196808,760.137939 444.872559,757.188721 447.270721,756.379089 
	C454.626099,753.895630 462.041412,754.726501 469.772705,758.472473 
M550.064331,802.954773 
	C538.385986,799.748779 534.441528,795.177246 534.828308,783.019897 
	C535.085938,774.922546 536.630676,766.846008 537.981689,758.824585 
	C538.188660,757.595642 540.513245,755.770142 541.770569,755.838440 
	C546.899658,756.117126 551.980042,757.201721 557.108398,757.624146 
	C559.620972,757.831055 562.698853,758.044067 564.644531,756.839172 
	C568.750549,754.296387 571.399719,743.372192 569.397461,738.901794 
	C566.874207,733.268433 561.598083,734.023926 556.841309,734.207397 
	C553.533691,734.334900 550.253418,735.109985 546.954163,735.544617 
	C545.753845,735.702698 544.533997,735.712708 543.294006,735.792236 
	C543.561829,733.266663 544.182922,731.220764 543.891174,729.314575 
	C543.387024,726.020874 543.159058,720.856628 541.278076,720.046570 
	C538.699402,718.935974 534.153076,720.325745 531.384094,722.100952 
	C521.864929,728.203247 514.342957,736.440186 508.640198,746.240417 
	C507.564911,748.088257 506.652893,750.130432 506.164764,752.200684 
	C505.060242,756.885193 506.676025,758.829407 511.485443,758.760742 
	C514.036743,758.724243 516.582947,758.326782 519.473877,758.060791 
	C519.101746,761.331055 518.713501,763.957581 518.517822,766.598450 
	C517.646301,778.357788 516.007080,790.138306 516.251709,801.877747 
	C516.450378,811.413147 519.941772,820.661865 529.940247,824.474365 
	C540.158142,828.370483 550.443848,827.234924 559.337646,820.582153 
	C562.168396,818.464539 564.358643,814.780396 565.555664,811.362549 
	C567.177551,806.731934 564.874512,804.287659 559.872986,803.883972 
	C556.885071,803.642761 553.902588,803.334839 550.064331,802.954773 
M611.023010,798.495972 
	C611.017029,793.503113 610.716125,788.489197 611.071777,783.522217 
	C611.660706,775.295837 613.382629,767.319336 619.171265,760.945007 
	C623.561584,756.110413 628.499268,755.564880 633.154419,759.776978 
	C636.446167,762.755554 639.560059,762.243652 641.865845,759.547058 
	C644.477173,756.493164 646.926086,752.837341 648.006714,749.034424 
	C650.231140,741.206604 646.418762,736.105774 638.376831,734.891357 
	C629.759583,733.590027 622.598145,736.222778 617.152100,743.088745 
	C615.119141,745.651733 613.320007,748.400146 611.093140,751.512939 
	C610.661743,749.482788 610.333252,748.037598 610.049133,746.583679 
	C608.158386,736.907776 602.125671,733.094421 592.585327,735.588501 
	C586.785400,737.104797 582.502441,740.602539 579.729248,745.865601 
	C576.935303,751.168030 577.743774,753.755981 583.249451,756.000061 
	C588.026611,757.947266 590.782043,761.377930 591.828186,766.220520 
	C592.457703,769.134155 592.794861,772.134216 592.994690,775.113464 
	C593.962646,789.544556 591.830200,803.640015 588.310608,817.591003 
	C586.656128,824.148926 588.308289,826.091919 595.099060,825.989441 
	C603.646729,825.860413 610.242676,819.499451 610.922729,810.474060 
	C611.197205,806.831116 611.014954,803.153748 611.023010,798.495972 
M1631.970337,799.491516 
	C1631.972412,793.833984 1631.668213,788.155579 1632.051880,782.524048 
	C1632.566406,774.973877 1634.356567,767.701538 1639.359009,761.678345 
	C1643.986938,756.105957 1648.950195,755.478699 1654.404907,760.100586 
	C1657.392700,762.632324 1660.316284,762.235413 1662.334351,759.841370 
	C1665.032349,756.640869 1667.791138,752.954529 1668.854614,749.024963 
	C1671.062744,740.865356 1667.136963,735.917969 1658.716675,734.812439 
	C1650.269775,733.703430 1643.295288,736.421875 1637.989014,743.108459 
	C1635.979736,745.640442 1634.213135,748.364929 1632.031128,751.429810 
	C1631.220093,748.128784 1630.729980,745.352112 1629.846558,742.706726 
	C1628.184937,737.730896 1624.541626,735.208618 1619.326172,735.031860 
	C1610.819458,734.743591 1604.581421,738.594482 1600.556885,745.906372 
	C1597.692871,751.109985 1598.638550,753.772827 1604.174072,756.017212 
	C1609.378784,758.127502 1611.998657,762.030884 1612.919189,767.247253 
	C1613.495850,770.513794 1613.792725,773.845154 1613.989380,777.160767 
	C1614.836914,791.447083 1612.102539,805.308411 1608.933105,819.123047 
	C1607.843628,823.871704 1609.137207,825.478516 1613.973999,825.949768 
	C1621.988281,826.730530 1628.946533,822.329346 1630.896729,814.332520 
	C1631.979248,809.893250 1631.661865,805.112549 1631.970337,799.491516 
M380.132629,824.651367 
	C391.152924,827.601685 400.107269,824.016235 404.272522,815.265137 
	C406.240875,811.129578 406.198151,808.127808 401.516907,805.951111 
	C395.526733,803.165833 393.056641,798.231628 393.890106,791.683716 
	C394.393555,787.728638 395.081390,783.793762 395.479004,779.829041 
	C396.520508,769.442993 398.648254,758.984375 398.123016,748.667725 
	C397.438293,735.217224 387.797272,731.071716 376.018494,737.976379 
	C374.031342,739.141235 372.130463,740.591064 370.517090,742.231323 
	C364.600037,748.246643 365.068451,752.695862 372.459900,756.769958 
	C377.173218,759.367920 379.448914,763.202148 378.987885,768.128601 
	C378.249023,776.023682 376.659882,783.835388 375.608521,791.706116 
	C374.602692,799.236023 373.483490,806.778076 373.077057,814.350342 
	C372.842316,818.724365 375.241241,822.301575 380.132629,824.651367 
M1478.373779,825.063721 
	C1482.068481,822.175598 1486.561768,819.883118 1489.266602,816.256653 
	C1493.111084,811.102356 1492.201172,808.968872 1486.562866,805.658691 
	C1481.403687,802.629700 1478.904175,798.333740 1479.642700,792.415161 
	C1480.465698,785.821289 1481.826416,779.285583 1482.440308,772.676941 
	C1483.221558,764.265930 1484.240479,755.766541 1483.788086,747.379028 
	C1483.208130,736.630066 1476.196533,732.417175 1466.053589,736.145508 
	C1462.433228,737.476257 1458.918335,739.835083 1456.126709,742.525146 
	C1450.171021,748.264221 1450.747559,752.705872 1458.015381,756.633179 
	C1462.960083,759.305237 1465.133057,763.321411 1464.839600,768.371338 
	C1464.456665,774.962097 1463.337646,781.527039 1462.249146,788.055359 
	C1461.103760,794.924622 1458.915161,801.688599 1458.435181,808.585754 
	C1457.501953,821.993835 1464.318359,827.587280 1478.373779,825.063721 
M1552.902954,700.559998 
	C1548.996094,696.025452 1545.352051,691.223877 1541.100342,687.039673 
	C1537.622192,683.616760 1533.260376,682.028992 1528.339233,684.686157 
	C1520.652100,688.836792 1518.989624,697.379883 1526.015503,703.216858 
	C1534.664185,710.401978 1544.296997,716.462219 1553.857544,722.444397 
	C1556.012939,723.793091 1559.627441,722.810059 1562.570068,722.900391 
	C1562.359985,719.935791 1562.976318,716.564697 1561.761108,714.094604 
	C1559.503174,709.504944 1556.177002,705.440796 1552.902954,700.559998 
M1485.889893,707.174622 
	C1488.138550,701.442810 1488.676392,695.778748 1484.239868,690.836121 
	C1480.203857,686.339600 1471.331421,685.567444 1465.733276,688.898987 
	C1459.804321,692.427429 1456.984497,700.566772 1459.386108,707.220459 
	C1461.427002,712.874756 1467.267090,715.921143 1474.414551,715.214172 
	C1479.467896,714.714294 1483.066162,712.166138 1485.889893,707.174622 
M392.599365,714.292297 
	C393.619507,713.746216 394.728210,713.318848 395.645477,712.634827 
	C401.588409,708.203064 403.619202,699.191528 400.137939,692.955078 
	C397.126770,687.560791 388.685333,685.227417 381.960968,687.930542 
	C375.186523,690.653809 371.374115,698.631653 373.286255,706.083191 
	C374.934265,712.505493 381.001617,716.021606 388.966217,715.142761 
	C389.951050,715.034058 390.921326,714.793335 392.599365,714.292297 
z"/>
<path fill="#FFED03" opacity="1.000000" stroke="none" 
	d="
M262.095215,815.860352 
	C254.820465,806.105042 254.941971,795.325378 256.554108,784.452393 
	C259.658539,763.514587 262.683594,742.593018 261.090820,721.326721 
	C261.016663,720.337036 260.949432,719.346741 260.852966,717.991089 
	C259.803162,718.228271 258.889069,718.320190 258.063843,718.640808 
	C254.392166,720.067200 252.645615,718.362549 252.191605,714.927002 
	C251.060333,706.366333 253.984985,699.600647 261.270721,694.768677 
	C270.485748,688.657043 280.702240,685.301025 291.588440,684.169983 
	C296.856537,683.622681 302.259613,683.605286 307.539246,684.064453 
	C338.816650,686.784485 342.405151,714.488647 332.605927,731.486877 
	C330.321045,735.450500 327.159302,738.908569 324.391907,742.611450 
	C324.592377,742.743530 324.822479,743.005310 325.093231,743.057983 
	C351.083618,748.108459 353.681183,770.724121 348.289246,787.677002 
	C341.367462,809.439819 324.658600,820.632751 303.270020,824.667236 
	C294.502838,826.320984 284.987671,825.740479 276.100830,824.343689 
	C271.195618,823.572754 266.886932,819.006287 262.095215,815.860352 
M306.817291,763.124573 
	C304.008392,763.394531 301.187195,763.977783 298.393188,763.868164 
	C292.883545,763.652039 288.657013,759.036926 287.964630,752.958130 
	C287.297119,747.097229 288.101990,746.145752 295.148834,743.869446 
	C297.831238,743.002991 300.684082,742.273743 303.010101,740.781738 
	C306.882233,738.297913 311.079803,735.812134 313.925995,732.333496 
	C322.553375,721.789001 317.941406,709.489624 304.572632,707.786072 
	C298.457306,707.006775 292.073944,708.444641 285.805054,708.710327 
	C282.540558,708.848694 281.959900,710.465942 281.724121,713.469604 
	C280.736206,726.054626 279.382904,738.610901 278.157776,751.177185 
	C277.078766,762.244202 275.384949,773.294800 275.096222,784.382141 
	C274.854431,793.668823 280.111115,799.267700 289.236755,800.984131 
	C293.759827,801.834839 298.520935,802.145996 303.104919,801.794800 
	C312.535706,801.072388 321.521057,798.721680 328.382965,791.512939 
	C337.677917,781.748169 334.008636,767.548035 321.078400,764.178711 
	C316.825317,763.070435 312.199585,763.392090 306.817291,763.124573 
z"/>
<path fill="#FFED03" opacity="1.000000" stroke="none" 
	d="
M1359.582764,825.869995 
	C1350.649170,825.980408 1349.993042,825.007080 1350.905151,816.936646 
	C1352.509644,802.738953 1353.820557,788.506592 1355.095215,774.274475 
	C1355.298706,772.002930 1354.889893,769.609009 1354.391235,767.354126 
	C1352.666260,759.554443 1346.975586,756.650757 1340.411011,761.159058 
	C1335.902222,764.255432 1331.816528,768.656250 1328.964355,773.340271 
	C1322.023315,784.740051 1316.783447,796.881775 1315.520020,810.512085 
	C1314.566772,820.794739 1307.091187,826.873413 1297.646973,825.956360 
	C1292.968140,825.502014 1291.568848,823.636597 1292.647461,818.989014 
	C1296.348755,803.040222 1299.342773,787.050476 1297.184570,770.534546 
	C1296.286499,763.661743 1294.141968,758.026123 1286.783569,755.616577 
	C1282.882812,754.339233 1282.199829,751.239319 1283.544067,747.508240 
	C1286.554199,739.154236 1297.280640,733.252014 1305.815796,735.299561 
	C1310.159058,736.341614 1313.262451,739.191650 1313.723755,743.366272 
	C1314.483154,750.237549 1314.359619,757.215515 1314.414429,764.150085 
	C1314.431885,766.359497 1313.834473,768.573730 1314.605957,771.042114 
	C1315.757202,768.357788 1316.562744,765.450195 1318.124756,763.031250 
	C1322.781738,755.820007 1327.026245,748.153442 1332.756470,741.873230 
	C1339.607544,734.364502 1349.071899,732.834717 1358.560059,736.326111 
	C1367.684814,739.683777 1370.528564,747.696899 1371.267578,756.674683 
	C1371.430420,758.653625 1371.602539,760.631775 1371.864624,763.721497 
	C1373.054443,761.966858 1373.658691,760.966125 1374.368408,760.046875 
	C1378.928955,754.139587 1383.018799,747.765991 1388.208496,742.472351 
	C1395.350342,735.187439 1404.664062,733.258301 1414.544678,735.203003 
	C1425.889526,737.435974 1432.981567,750.345154 1430.518311,764.110962 
	C1429.523804,769.668152 1427.784180,775.089600 1426.710327,780.636108 
	C1426.052002,784.036194 1425.698120,787.562195 1425.763550,791.021118 
	C1425.891479,797.783997 1429.084473,802.738281 1435.440674,805.430664 
	C1438.010620,806.519287 1440.171265,807.721558 1439.832031,811.187134 
	C1439.211060,817.531189 1434.891235,823.357361 1429.233643,825.071472 
	C1422.190308,827.205383 1414.959106,825.059631 1410.881836,819.496948 
	C1406.250000,813.177368 1405.484009,805.904175 1406.620483,798.507446 
	C1407.906738,790.134949 1409.877441,781.869568 1411.403931,773.530823 
	C1411.818604,771.266357 1412.023804,768.868958 1411.766846,766.595581 
	C1411.196533,761.549011 1408.131348,759.018982 1403.016724,758.873535 
	C1397.559570,758.718384 1392.938843,760.749878 1388.941772,764.317139 
	C1381.523560,770.937866 1377.137207,779.486877 1373.786133,788.634399 
	C1373.300537,789.959717 1373.581787,791.570374 1373.530396,793.049683 
	C1373.328369,798.864136 1373.642456,804.752319 1372.813110,810.475220 
	C1371.729248,817.953674 1368.321777,824.101257 1359.582764,825.869995 
M1313.906616,773.302490 
	C1313.766846,772.944214 1313.627075,772.585999 1313.487305,772.227722 
	C1313.488770,772.753357 1313.490234,773.278992 1313.906616,773.302490 
z"/>
<path fill="#FFED03" opacity="1.000000" stroke="none" 
	d="
M816.482544,774.479919 
	C820.864807,760.511841 828.029602,748.909668 840.210999,741.092163 
	C853.041748,732.858093 866.320251,731.907898 879.767883,739.852112 
	C880.197937,740.106201 880.632507,740.357239 881.085571,740.564575 
	C881.199890,740.616943 881.393982,740.494690 882.045471,740.320801 
	C881.463806,724.545227 881.608948,708.634460 874.568970,693.728088 
	C870.650452,685.431091 872.996948,680.522644 882.129395,676.849548 
	C890.062500,673.658875 896.613525,676.027222 898.284485,684.549683 
	C900.379639,695.235352 901.863342,706.362793 901.300964,717.179504 
	C900.187866,738.591553 897.437439,759.916565 895.495972,781.289551 
	C895.168091,784.897827 895.134766,788.614868 895.609619,792.196228 
	C896.481079,798.768494 900.387756,803.176758 906.799194,804.831055 
	C911.540771,806.054443 912.391541,808.732483 911.261536,813.019531 
	C908.373901,823.975281 895.959717,829.377747 886.227600,823.696106 
	C880.639282,820.433594 880.038940,814.576782 879.138672,808.983276 
	C878.807251,806.924194 878.771729,804.817444 878.490906,801.382446 
	C875.896362,804.824951 874.207825,807.210022 872.372009,809.475708 
	C865.263367,818.249268 857.036560,825.143311 845.126465,826.227966 
	C828.311035,827.759399 815.413757,817.898132 814.262207,801.018372 
	C813.673096,792.382446 815.561340,783.577576 816.482544,774.479919 
M872.090393,787.496094 
	C874.573364,782.250977 877.015991,776.986145 879.556763,771.769165 
	C880.775696,769.266418 880.275330,767.599670 877.970093,765.887207 
	C871.770935,761.282043 864.912720,758.607544 857.230774,758.257019 
	C839.941956,757.467957 828.146606,770.841553 831.015991,787.855103 
	C832.922302,799.158386 843.675659,805.660461 854.588684,802.028259 
	C862.023987,799.553589 867.251953,794.284363 872.090393,787.496094 
z"/>
<path fill="#FFED03" opacity="1.000000" stroke="none" 
	d="
M1200.044434,798.567139 
	C1204.599976,803.549561 1210.206665,803.479187 1214.991333,801.061584 
	C1219.869141,798.596985 1225.170044,795.184631 1227.947632,790.729553 
	C1233.340088,782.080994 1237.508057,772.577332 1241.317871,763.080688 
	C1242.771606,759.456787 1241.639038,754.858582 1242.053345,750.741455 
	C1242.958008,741.751892 1248.313843,736.347778 1256.570557,735.749939 
	C1264.186157,735.198486 1266.294312,737.778687 1264.476807,745.146606 
	C1262.686157,752.405212 1260.366699,759.628845 1259.553711,767.008240 
	C1258.615845,775.522339 1258.562988,784.221558 1259.092163,792.780640 
	C1259.483887,799.117249 1263.695312,803.437927 1270.015381,804.915405 
	C1274.377197,805.935181 1275.075684,808.580811 1274.375000,812.346497 
	C1272.932251,820.099792 1266.794800,825.247253 1258.487061,825.621399 
	C1250.703003,825.971924 1245.166992,822.041626 1243.109741,814.172058 
	C1242.237305,810.834656 1242.056519,807.284851 1241.848877,803.814331 
	C1241.644531,800.400208 1241.804321,796.964233 1241.804321,792.660828 
	C1239.196411,797.544250 1237.192139,801.860229 1234.693970,805.868530 
	C1227.583862,817.276855 1218.162231,825.360779 1204.021851,826.356201 
	C1188.671875,827.436707 1178.970947,818.899963 1179.056519,803.496765 
	C1179.093994,796.750732 1180.559937,790.006042 1181.472168,783.273682 
	C1182.051392,778.999329 1183.082153,774.770081 1183.414307,770.482239 
	C1183.879883,764.471558 1182.152466,759.536133 1176.368530,756.231567 
	C1171.094482,753.218201 1170.287354,749.114258 1174.483276,744.720947 
	C1177.804932,741.243164 1182.086060,738.078064 1186.552246,736.431091 
	C1194.224854,733.601807 1199.946045,737.212341 1202.064697,745.150269 
	C1204.534790,754.404907 1203.344116,763.643738 1201.528809,772.843689 
	C1200.499390,778.061890 1199.080200,783.241211 1198.567261,788.509277 
	C1198.259399,791.671631 1199.359009,794.970947 1200.044434,798.567139 
z"/>
<path fill="#FFED03" opacity="1.000000" stroke="none" 
	d="
M974.039368,734.889587 
	C977.987976,735.214539 981.551331,735.145630 984.908386,735.944153 
	C1002.962036,740.239075 1009.640686,758.645630 998.753296,773.736084 
	C988.138550,788.448608 965.309692,794.126404 948.329651,786.271545 
	C947.018005,785.664795 945.725647,785.016479 944.329651,784.341736 
	C944.475891,796.706116 953.538879,805.527527 966.629639,805.900635 
	C975.536499,806.154480 983.685547,803.506836 991.017151,798.390198 
	C992.648010,797.252136 994.250366,795.893127 996.081604,795.258301 
	C1000.381592,793.767883 1003.910217,797.148865 1002.677551,801.534729 
	C1002.196533,803.246094 1001.245422,804.937561 1000.134521,806.342468 
	C987.573181,822.227417 971.162476,828.856934 951.207947,825.617188 
	C937.038757,823.316711 928.328247,813.654114 925.650085,798.630249 
	C920.615356,770.386597 939.315186,741.251770 966.128967,735.667297 
	C968.553955,735.162170 971.079834,735.141663 974.039368,734.889587 
M981.093689,766.451050 
	C982.494507,761.881836 980.851257,758.542358 976.686646,756.591553 
	C967.296997,752.193237 949.564270,756.680847 946.520081,771.340393 
	C953.238892,775.239624 960.654968,775.692871 968.125610,774.831238 
	C973.349182,774.228760 978.119080,772.191711 981.093689,766.451050 
z"/>
<path fill="#FFED03" opacity="1.000000" stroke="none" 
	d="
M1506.988770,787.116943 
	C1508.400757,761.186401 1525.477539,739.817810 1548.499390,735.691162 
	C1554.400024,734.633545 1560.898804,734.822754 1566.770386,736.081909 
	C1585.064819,740.005249 1591.655396,759.168701 1580.304443,774.141846 
	C1569.336548,788.609497 1546.809448,794.065063 1530.195557,786.270081 
	C1528.999878,785.709106 1527.830200,785.092712 1526.613892,784.484802 
	C1525.310303,793.282837 1532.387695,802.652649 1542.241089,804.964844 
	C1553.497925,807.606262 1563.627441,804.595703 1572.973999,798.271240 
	C1576.256348,796.050232 1579.743164,792.559753 1583.453857,796.640503 
	C1586.974243,800.511841 1583.812988,804.174255 1581.299072,807.236877 
	C1568.857178,822.394836 1552.786255,828.694397 1533.444580,825.705505 
	C1518.173584,823.345764 1508.183716,811.584351 1507.089233,795.582458 
	C1506.907837,792.929871 1507.009766,790.257874 1506.988770,787.116943 
M1557.878052,756.248474 
	C1543.919434,752.483521 1530.943237,759.075684 1528.290649,771.643860 
	C1538.151001,775.562012 1548.115356,777.402405 1557.997314,771.986023 
	C1565.144897,768.068298 1565.221069,761.182861 1557.878052,756.248474 
z"/>
<path fill="#FFED03" opacity="1.000000" stroke="none" 
	d="
M1734.126099,736.780396 
	C1750.271729,743.497620 1754.905273,759.946350 1744.891113,773.791626 
	C1734.514404,788.138428 1712.452515,793.888611 1695.339722,786.699097 
	C1693.979370,786.127563 1692.641846,785.501648 1691.255493,784.884033 
	C1689.733521,792.292297 1695.183716,800.810791 1703.780640,803.987061 
	C1715.363647,808.266602 1726.021851,805.242432 1736.119263,799.124329 
	C1737.395874,798.350891 1738.448486,796.847351 1739.777222,796.597412 
	C1742.310059,796.120789 1745.999512,795.246094 1747.289917,796.504456 
	C1748.650391,797.831055 1747.911743,801.462646 1747.787231,804.072876 
	C1747.746582,804.926453 1746.815552,805.781921 1746.192749,806.557007 
	C1733.510620,822.339783 1717.088013,828.910461 1697.151978,825.561646 
	C1683.499268,823.268311 1674.405762,813.486633 1672.006958,799.865601 
	C1667.173096,772.417725 1682.986816,744.442200 1707.704956,736.835144 
	C1716.342773,734.176819 1725.049683,733.980957 1734.126099,736.780396 
M1709.414185,755.654907 
	C1700.720093,757.479858 1695.174927,762.642700 1691.922607,772.274231 
	C1697.806641,773.306824 1702.916260,774.491333 1708.093262,775.035034 
	C1713.848755,775.639587 1719.678833,774.870422 1723.969727,770.713562 
	C1725.973389,768.772400 1727.791504,765.118652 1727.374023,762.630310 
	C1726.962646,760.178040 1723.986694,757.189026 1721.473389,756.292236 
	C1718.053223,755.071960 1714.004395,755.614380 1709.414185,755.654907 
z"/>
<path fill="#FFED03" opacity="1.000000" stroke="none" 
	d="
M662.542114,768.506348 
	C658.394104,769.849365 656.721924,767.663574 655.991516,763.990601 
	C654.795471,757.975830 655.941345,752.630859 660.831116,748.655884 
	C677.540955,735.072510 696.364136,730.632751 716.890442,737.611511 
	C730.140259,742.116211 736.369934,752.869934 738.466003,766.373596 
	C742.431519,791.919495 728.131165,817.254028 705.528015,824.272766 
	C696.921021,826.945374 688.164368,827.282959 679.427185,824.994751 
	C666.662964,821.651855 658.888123,811.891907 657.938965,798.747253 
	C657.212769,788.690735 659.131226,779.227478 663.725464,769.598267 
	C663.498108,768.837036 663.020142,768.671692 662.542114,768.506348 
M696.613403,804.107971 
	C698.110901,804.072327 699.626160,804.172058 701.103088,803.979004 
	C710.323547,802.773621 717.640076,798.436584 721.287415,789.723450 
	C724.563538,781.897278 725.189514,773.387756 719.714539,766.404724 
	C712.411438,757.090149 701.807556,756.901428 690.984863,758.011841 
	C681.431030,758.992065 678.720825,766.253784 676.453491,773.536194 
	C671.348267,789.933350 679.583923,802.701233 696.613403,804.107971 
z"/>
<path fill="#FFED03" opacity="1.000000" stroke="none" 
	d="
M1105.555908,684.166992 
	C1107.605225,687.944336 1110.679688,691.546204 1110.731445,695.191040 
	C1110.901123,707.127319 1110.302612,719.104797 1109.382812,731.018799 
	C1108.140259,747.111572 1105.785889,763.130615 1104.900879,779.235779 
	C1103.917236,797.138489 1109.042236,801.962952 1126.806763,802.009583 
	C1138.418457,802.040100 1149.638916,800.046570 1160.449829,795.711792 
	C1166.478271,793.294678 1169.576050,795.292175 1170.228760,801.813293 
	C1170.895752,808.476013 1168.329346,814.104797 1162.493530,816.821228 
	C1155.050415,820.285950 1147.166992,823.829590 1139.162720,824.813843 
	C1128.223999,826.158936 1116.856201,826.218994 1105.919678,824.851196 
	C1090.201294,822.885254 1083.409302,813.603760 1084.775146,797.664307 
	C1085.896729,784.573181 1088.519043,771.597595 1089.362427,758.499146 
	C1090.226685,745.073486 1090.425049,731.515381 1089.539917,718.105896 
	C1089.120850,711.757812 1085.871582,705.454224 1083.194580,699.446960 
	C1081.384888,695.386230 1081.704468,692.400085 1085.043457,689.763367 
	C1090.950073,685.098816 1097.214355,681.490479 1105.555908,684.166992 
z"/>
<path fill="#FFED03" opacity="1.000000" stroke="none" 
	d="
M469.436157,758.287476 
	C462.041412,754.726501 454.626099,753.895630 447.270721,756.379089 
	C444.872559,757.188721 443.196808,760.137939 441.190704,762.108643 
	C443.136566,763.929993 444.803833,766.739014 447.082184,767.381531 
	C453.133392,769.088196 459.469299,769.758911 465.650757,771.040344 
	C469.546753,771.848022 473.470093,772.730530 477.204437,774.071655 
	C487.728027,777.850830 491.728760,785.364075 489.441315,796.453857 
	C485.632812,814.917786 469.984131,826.885864 450.128510,826.431641 
	C441.653992,826.237793 433.599609,824.512268 426.667236,819.239929 
	C422.451538,816.033752 419.927979,811.894287 420.066040,806.459656 
	C420.258728,798.873047 424.925812,795.854004 431.774261,799.115784 
	C441.033112,803.525391 450.634491,805.669250 460.831940,804.005310 
	C463.903412,803.504211 467.067566,802.623596 469.765625,801.144165 
	C471.329437,800.286682 473.049255,797.772461 472.866058,796.220093 
	C472.685638,794.691406 470.389862,792.612061 468.678925,792.200317 
	C460.437805,790.216553 452.108704,788.557373 443.759338,787.072571 
	C422.060577,783.213745 421.103546,766.732239 428.795685,753.175293 
	C431.686218,748.080933 436.531494,743.366028 441.604980,740.380005 
	C455.461639,732.224548 470.278748,732.498230 484.732819,738.956421 
	C493.497498,742.872559 494.303589,750.716980 487.347015,757.392151 
	C480.793579,763.680481 477.571442,763.878540 469.436157,758.287476 
z"/>
<path fill="#FFED03" opacity="1.000000" stroke="none" 
	d="
M550.490967,803.005859 
	C553.902588,803.334839 556.885071,803.642761 559.872986,803.883972 
	C564.874512,804.287659 567.177551,806.731934 565.555664,811.362549 
	C564.358643,814.780396 562.168396,818.464539 559.337646,820.582153 
	C550.443848,827.234924 540.158142,828.370483 529.940247,824.474365 
	C519.941772,820.661865 516.450378,811.413147 516.251709,801.877747 
	C516.007080,790.138306 517.646301,778.357788 518.517822,766.598450 
	C518.713501,763.957581 519.101746,761.331055 519.473877,758.060791 
	C516.582947,758.326782 514.036743,758.724243 511.485443,758.760742 
	C506.676025,758.829407 505.060242,756.885193 506.164764,752.200684 
	C506.652893,750.130432 507.564911,748.088257 508.640198,746.240417 
	C514.342957,736.440186 521.864929,728.203247 531.384094,722.100952 
	C534.153076,720.325745 538.699402,718.935974 541.278076,720.046570 
	C543.159058,720.856628 543.387024,726.020874 543.891174,729.314575 
	C544.182922,731.220764 543.561829,733.266663 543.294006,735.792236 
	C544.533997,735.712708 545.753845,735.702698 546.954163,735.544617 
	C550.253418,735.109985 553.533691,734.334900 556.841309,734.207397 
	C561.598083,734.023926 566.874207,733.268433 569.397461,738.901794 
	C571.399719,743.372192 568.750549,754.296387 564.644531,756.839172 
	C562.698853,758.044067 559.620972,757.831055 557.108398,757.624146 
	C551.980042,757.201721 546.899658,756.117126 541.770569,755.838440 
	C540.513245,755.770142 538.188660,757.595642 537.981689,758.824585 
	C536.630676,766.846008 535.085938,774.922546 534.828308,783.019897 
	C534.441528,795.177246 538.385986,799.748779 550.490967,803.005859 
z"/>
<path fill="#FFED03" opacity="1.000000" stroke="none" 
	d="
M611.031738,798.994019 
	C611.014954,803.153748 611.197205,806.831116 610.922729,810.474060 
	C610.242676,819.499451 603.646729,825.860413 595.099060,825.989441 
	C588.308289,826.091919 586.656128,824.148926 588.310608,817.591003 
	C591.830200,803.640015 593.962646,789.544556 592.994690,775.113464 
	C592.794861,772.134216 592.457703,769.134155 591.828186,766.220520 
	C590.782043,761.377930 588.026611,757.947266 583.249451,756.000061 
	C577.743774,753.755981 576.935303,751.168030 579.729248,745.865601 
	C582.502441,740.602539 586.785400,737.104797 592.585327,735.588501 
	C602.125671,733.094421 608.158386,736.907776 610.049133,746.583679 
	C610.333252,748.037598 610.661743,749.482788 611.093140,751.512939 
	C613.320007,748.400146 615.119141,745.651733 617.152100,743.088745 
	C622.598145,736.222778 629.759583,733.590027 638.376831,734.891357 
	C646.418762,736.105774 650.231140,741.206604 648.006714,749.034424 
	C646.926086,752.837341 644.477173,756.493164 641.865845,759.547058 
	C639.560059,762.243652 636.446167,762.755554 633.154419,759.776978 
	C628.499268,755.564880 623.561584,756.110413 619.171265,760.945007 
	C613.382629,767.319336 611.660706,775.295837 611.071777,783.522217 
	C610.716125,788.489197 611.017029,793.503113 611.031738,798.994019 
z"/>
<path fill="#FFED03" opacity="1.000000" stroke="none" 
	d="
M1631.972900,799.988647 
	C1631.661865,805.112549 1631.979248,809.893250 1630.896729,814.332520 
	C1628.946533,822.329346 1621.988281,826.730530 1613.973999,825.949768 
	C1609.137207,825.478516 1607.843628,823.871704 1608.933105,819.123047 
	C1612.102539,805.308411 1614.836914,791.447083 1613.989380,777.160767 
	C1613.792725,773.845154 1613.495850,770.513794 1612.919189,767.247253 
	C1611.998657,762.030884 1609.378784,758.127502 1604.174072,756.017212 
	C1598.638550,753.772827 1597.692871,751.109985 1600.556885,745.906372 
	C1604.581421,738.594482 1610.819458,734.743591 1619.326172,735.031860 
	C1624.541626,735.208618 1628.184937,737.730896 1629.846558,742.706726 
	C1630.729980,745.352112 1631.220093,748.128784 1632.031128,751.429810 
	C1634.213135,748.364929 1635.979736,745.640442 1637.989014,743.108459 
	C1643.295288,736.421875 1650.269775,733.703430 1658.716675,734.812439 
	C1667.136963,735.917969 1671.062744,740.865356 1668.854614,749.024963 
	C1667.791138,752.954529 1665.032349,756.640869 1662.334351,759.841370 
	C1660.316284,762.235413 1657.392700,762.632324 1654.404907,760.100586 
	C1648.950195,755.478699 1643.986938,756.105957 1639.359009,761.678345 
	C1634.356567,767.701538 1632.566406,774.973877 1632.051880,782.524048 
	C1631.668213,788.155579 1631.972412,793.833984 1631.972900,799.988647 
z"/>
<path fill="#FFED04" opacity="1.000000" stroke="none" 
	d="
M379.794128,824.460449 
	C375.241241,822.301575 372.842316,818.724365 373.077057,814.350342 
	C373.483490,806.778076 374.602692,799.236023 375.608521,791.706116 
	C376.659882,783.835388 378.249023,776.023682 378.987885,768.128601 
	C379.448914,763.202148 377.173218,759.367920 372.459900,756.769958 
	C365.068451,752.695862 364.600037,748.246643 370.517090,742.231323 
	C372.130463,740.591064 374.031342,739.141235 376.018494,737.976379 
	C387.797272,731.071716 397.438293,735.217224 398.123016,748.667725 
	C398.648254,758.984375 396.520508,769.442993 395.479004,779.829041 
	C395.081390,783.793762 394.393555,787.728638 393.890106,791.683716 
	C393.056641,798.231628 395.526733,803.165833 401.516907,805.951111 
	C406.198151,808.127808 406.240875,811.129578 404.272522,815.265137 
	C400.107269,824.016235 391.152924,827.601685 379.794128,824.460449 
z"/>
<path fill="#FFED03" opacity="1.000000" stroke="none" 
	d="
M1477.970703,825.138184 
	C1464.318359,827.587280 1457.501953,821.993835 1458.435181,808.585754 
	C1458.915161,801.688599 1461.103760,794.924622 1462.249146,788.055359 
	C1463.337646,781.527039 1464.456665,774.962097 1464.839600,768.371338 
	C1465.133057,763.321411 1462.960083,759.305237 1458.015381,756.633179 
	C1450.747559,752.705872 1450.171021,748.264221 1456.126709,742.525146 
	C1458.918335,739.835083 1462.433228,737.476257 1466.053589,736.145508 
	C1476.196533,732.417175 1483.208130,736.630066 1483.788086,747.379028 
	C1484.240479,755.766541 1483.221558,764.265930 1482.440308,772.676941 
	C1481.826416,779.285583 1480.465698,785.821289 1479.642700,792.415161 
	C1478.904175,798.333740 1481.403687,802.629700 1486.562866,805.658691 
	C1492.201172,808.968872 1493.111084,811.102356 1489.266602,816.256653 
	C1486.561768,819.883118 1482.068481,822.175598 1477.970703,825.138184 
z"/>
<path fill="#FFED04" opacity="1.000000" stroke="none" 
	d="
M1553.099365,700.858887 
	C1556.177002,705.440796 1559.503174,709.504944 1561.761108,714.094604 
	C1562.976318,716.564697 1562.359985,719.935791 1562.570068,722.900391 
	C1559.627441,722.810059 1556.012939,723.793091 1553.857544,722.444397 
	C1544.296997,716.462219 1534.664185,710.401978 1526.015503,703.216858 
	C1518.989624,697.379883 1520.652100,688.836792 1528.339233,684.686157 
	C1533.260376,682.028992 1537.622192,683.616760 1541.100342,687.039673 
	C1545.352051,691.223877 1548.996094,696.025452 1553.099365,700.858887 
z"/>
<path fill="#FFED03" opacity="1.000000" stroke="none" 
	d="
M1485.710449,707.506348 
	C1483.066162,712.166138 1479.467896,714.714294 1474.414551,715.214172 
	C1467.267090,715.921143 1461.427002,712.874756 1459.386108,707.220459 
	C1456.984497,700.566772 1459.804321,692.427429 1465.733276,688.898987 
	C1471.331421,685.567444 1480.203857,686.339600 1484.239868,690.836121 
	C1488.676392,695.778748 1488.138550,701.442810 1485.710449,707.506348 
z"/>
<path fill="#FFED04" opacity="1.000000" stroke="none" 
	d="
M392.248840,714.453003 
	C390.921326,714.793335 389.951050,715.034058 388.966217,715.142761 
	C381.001617,716.021606 374.934265,712.505493 373.286255,706.083191 
	C371.374115,698.631653 375.186523,690.653809 381.960968,687.930542 
	C388.685333,685.227417 397.126770,687.560791 400.137939,692.955078 
	C403.619202,699.191528 401.588409,708.203064 395.645477,712.634827 
	C394.728210,713.318848 393.619507,713.746216 392.248840,714.453003 
z"/>
<path fill="#FFFFFD" opacity="1.000000" stroke="none" 
	d="
M307.280762,763.092285 
	C312.199585,763.392090 316.825317,763.070435 321.078400,764.178711 
	C334.008636,767.548035 337.677917,781.748169 328.382965,791.512939 
	C321.521057,798.721680 312.535706,801.072388 303.104919,801.794800 
	C298.520935,802.145996 293.759827,801.834839 289.236755,800.984131 
	C280.111115,799.267700 274.854431,793.668823 275.096222,784.382141 
	C275.384949,773.294800 277.078766,762.244202 278.157776,751.177185 
	C279.382904,738.610901 280.736206,726.054626 281.724121,713.469604 
	C281.959900,710.465942 282.540558,708.848694 285.805054,708.710327 
	C292.073944,708.444641 298.457306,707.006775 304.572632,707.786072 
	C317.941406,709.489624 322.553375,721.789001 313.925995,732.333496 
	C311.079803,735.812134 306.882233,738.297913 303.010101,740.781738 
	C300.684082,742.273743 297.831238,743.002991 295.148834,743.869446 
	C288.101990,746.145752 287.297119,747.097229 287.964630,752.958130 
	C288.657013,759.036926 292.883545,763.652039 298.393188,763.868164 
	C301.187195,763.977783 304.008392,763.394531 307.280762,763.092285 
z"/>
<path fill="#FFFFFF" opacity="1.000000" stroke="none" 
	d="
M1313.699219,773.553589 
	C1313.490234,773.278992 1313.488770,772.753357 1313.487305,772.227722 
	C1313.627075,772.585999 1313.766846,772.944214 1313.699219,773.553589 
z"/>
<path fill="#FFFFFD" opacity="1.000000" stroke="none" 
	d="
M871.910034,787.810791 
	C867.251953,794.284363 862.023987,799.553589 854.588684,802.028259 
	C843.675659,805.660461 832.922302,799.158386 831.015991,787.855103 
	C828.146606,770.841553 839.941956,757.467957 857.230774,758.257019 
	C864.912720,758.607544 871.770935,761.282043 877.970093,765.887207 
	C880.275330,767.599670 880.775696,769.266418 879.556763,771.769165 
	C877.015991,776.986145 874.573364,782.250977 871.910034,787.810791 
z"/>
<path fill="#FFFFFB" opacity="1.000000" stroke="none" 
	d="
M980.989258,766.809204 
	C978.119080,772.191711 973.349182,774.228760 968.125610,774.831238 
	C960.654968,775.692871 953.238892,775.239624 946.520081,771.340393 
	C949.564270,756.680847 967.296997,752.193237 976.686646,756.591553 
	C980.851257,758.542358 982.494507,761.881836 980.989258,766.809204 
z"/>
<path fill="#FFFFFB" opacity="1.000000" stroke="none" 
	d="
M1558.232910,756.438477 
	C1565.221069,761.182861 1565.144897,768.068298 1557.997314,771.986023 
	C1548.115356,777.402405 1538.151001,775.562012 1528.290649,771.643860 
	C1530.943237,759.075684 1543.919434,752.483521 1558.232910,756.438477 
z"/>
<path fill="#FFFFFB" opacity="1.000000" stroke="none" 
	d="
M1709.819580,755.527893 
	C1714.004395,755.614380 1718.053223,755.071960 1721.473389,756.292236 
	C1723.986694,757.189026 1726.962646,760.178040 1727.374023,762.630310 
	C1727.791504,765.118652 1725.973389,768.772400 1723.969727,770.713562 
	C1719.678833,774.870422 1713.848755,775.639587 1708.093262,775.035034 
	C1702.916260,774.491333 1697.806641,773.306824 1691.922607,772.274231 
	C1695.174927,762.642700 1700.720093,757.479858 1709.819580,755.527893 
z"/>
<path fill="#FFFFFD" opacity="1.000000" stroke="none" 
	d="
M696.161560,804.092285 
	C679.583923,802.701233 671.348267,789.933350 676.453491,773.536194 
	C678.720825,766.253784 681.431030,758.992065 690.984863,758.011841 
	C701.807556,756.901428 712.411438,757.090149 719.714539,766.404724 
	C725.189514,773.387756 724.563538,781.897278 721.287415,789.723450 
	C717.640076,798.436584 710.323547,802.773621 701.103088,803.979004 
	C699.626160,804.172058 698.110901,804.072327 696.161560,804.092285 
z"/>
<path fill="#FFFFFF" opacity="1.000000" stroke="none" 
	d="
M662.811890,768.769104 
	C663.020142,768.671692 663.498108,768.837036 663.826050,769.248535 
	C663.477844,769.340393 663.279724,769.186096 662.811890,768.769104 
z"/>
</svg>